<svg xmlns="http://www.w3.org/2000/svg" width="16.491" height="16.803" viewBox="0 0 16.491 16.803">
  <g id="icon-user-dashboard-bank" transform="translate(-1256.421 -528.427)">
    <path id="Path_307" data-name="Path 307" d="M1256.67,533v.8a.69.69,0,0,0,.45.64v1a.65.65,0,0,0,.61.64V542a.65.65,0,0,0-.61.64v1a.69.69,0,0,0-.45.65V545a.23.23,0,0,0,.23.23h15.46a.23.23,0,0,0,.23-.23v-.67a.69.69,0,0,0-.45-.65v-1a.63.63,0,0,0-.61-.63v-5.89a.65.65,0,0,0,.61-.64v-1a.69.69,0,0,0,.45-.64v-.79a.24.24,0,0,0,.3-.12.22.22,0,0,0-.12-.3l-8-4.22a.28.28,0,0,0-.22,0l-8,4.21a.183.183,0,1,0,.12.34Zm.9,1.83v-.35h2.64v.35Zm5.88,1.27V542a.65.65,0,0,0-.61.64v1h-2.17v-1a.65.65,0,0,0-.62-.64v-5.89a.65.65,0,0,0,.62-.64v-1h2.17v1a.65.65,0,0,0,.61.64Zm-.15-1.27v-.35h2.64v.35Zm5.88,1.27V542a.65.65,0,0,0-.61.64v1h-2.17v-1a.65.65,0,0,0-.61-.64v-5.89a.65.65,0,0,0,.61-.64v-1h2.17v1a.65.65,0,0,0,.61.64Zm-.15-1.27v-.35h2.64v.35Zm2.64,8.43v.34H1269v-.34Zm-5.73,0v.34h-2.64v-.34Zm-2.26-7.62h-.2a.18.18,0,0,1-.18-.18v-.17h2.64v.17a.18.18,0,0,1-.18.18Zm1.65.46V542h-1.42v-5.89Zm-1.65,6.35h2.08a.18.18,0,0,1,.18.18v.17h-2.64v-.17a.18.18,0,0,1,.18-.18Zm-3.47.81v.34h-2.65v-.34Zm-2.65-7.8v-.17h2.65v.17a.18.18,0,0,1-.19.18h-2.28a.18.18,0,0,1-.18-.18Zm2,.65V542h-1.42v-5.89Zm-2,6.52a.19.19,0,0,1,.19-.18H1260a.18.18,0,0,1,.19.18v.17h-2.65Zm14.56,1.67v.45h-15v-.45a.23.23,0,0,1,.24-.23h14.52a.23.23,0,0,1,.24.23Zm-.45-1.67v.17H1269v-.17a.18.18,0,0,1,.18-.18h2.28a.18.18,0,0,1,.18.18Zm-2-.64V536.1h1.42V542Zm2-6.53a.19.19,0,0,1-.18.19h-2.28a.19.19,0,0,1-.18-.19v-.17h2.64Zm-7.05-6.63,6.82,3.59h-13.65Zm-7.5,4.28a.23.23,0,0,1,.23-.23h14.54a.23.23,0,0,1,.23.23v.69a.23.23,0,0,1-.23.23h-14.54a.23.23,0,0,1-.23-.23Z" fill="#fff"/>
  </g>
</svg>
