<svg id="icon-user-dashboard-bank-transfer" xmlns="http://www.w3.org/2000/svg" xmlns:xlink="http://www.w3.org/1999/xlink" width="29.455" height="29.962" viewBox="0 0 29.455 29.962">
  <defs>
    <linearGradient id="linear-gradient" x1="0.001" y1="0.501" x2="0.999" y2="0.501" gradientUnits="objectBoundingBox">
      <stop offset="0" stop-color="#fbb042"/>
      <stop offset="0.04" stop-color="#fbb042"/>
      <stop offset="0.39" stop-color="#fdc010"/>
      <stop offset="1" stop-color="#ffde11"/>
    </linearGradient>
  </defs>
  <path id="Path_1965" data-name="Path 1965" d="M977.27,820.74a1.087,1.087,0,0,0,0,.18v1.23a1.22,1.22,0,0,0,.79,1.14v1.82a1.13,1.13,0,0,0,1.09,1.13v10.49a1.14,1.14,0,0,0-1.09,1.14v1.81a1.22,1.22,0,0,0-.79,1.15V842a.41.41,0,0,0,.41.41h27.5a.4.4,0,0,0,.4-.41v-1.21a1.22,1.22,0,0,0-.79-1.15v-1.82a1.14,1.14,0,0,0-1.09-1.14V826.24a1.13,1.13,0,0,0,1.09-1.13v-1.82a1.21,1.21,0,0,0,.79-1.14v-1.23a1.087,1.087,0,0,0,0-.18.4.4,0,1,0,.32-.74l-14.28-7.5a.37.37,0,0,0-.38,0L976.93,820a.412.412,0,0,0,.34.75Zm1.59,3.26v-.63h4.7V824Zm10.47,2.25v10.48a1.14,1.14,0,0,0-1.09,1.14v1.74h-3.87v-1.74a1.14,1.14,0,0,0-1.09-1.14V826.24a1.13,1.13,0,0,0,1.09-1.13v-1.74h3.87v1.73a1.14,1.14,0,0,0,1.08,1.14Zm-.27-2.25v-.63h4.7V824Zm10.47,2.25v10.48a1.14,1.14,0,0,0-1.09,1.14v1.74h-3.87v-1.74a1.14,1.14,0,0,0-1.09-1.14V826.24a1.13,1.13,0,0,0,1.09-1.13v-1.74h3.87v1.73a1.14,1.14,0,0,0,1.08,1.14Zm-.27-2.25v-.63h4.7V824Zm4.7,15v.63h-4.71V839Zm-10.2,0v.63h-4.71V839Zm-4-13.54h-.35a.33.33,0,0,1-.33-.33v-.3h4.71v.3a.33.33,0,0,1-.33.33Zm2.94.81v10.48h-2.53v-10.5Zm-2.94,11.29h3.7a.33.33,0,0,1,.33.33v.3h-4.71v-.3a.33.33,0,0,1,.33-.33Zm-6.2,1.44v.63h-4.71V839Zm-4.71-13.86v-.31h4.71v.3a.33.33,0,0,1-.33.33h-4.06a.33.33,0,0,1-.32-.33Zm3.62,1.14v10.47h-2.53v-10.5Zm-3.62,11.62a.33.33,0,0,1,.33-.33h4.05a.33.33,0,0,1,.33.33v.3h-4.71Zm25.9,3v.8H978.06v-.8a.42.42,0,0,1,.42-.42h25.85a.42.42,0,0,1,.42.41Zm-.79-3v.3h-4.71v-.3a.33.33,0,0,1,.33-.33h4.06a.34.34,0,0,1,.32.32Zm-3.62-1.14V826.25h2.53v10.48Zm3.62-11.62a.32.32,0,0,1-.33.32h-4a.32.32,0,0,1-.33-.32v-.31h4.7ZM991.4,813.31l12.15,6.38H979.26Zm-13.34,7.61a.4.4,0,0,1,.41-.4h25.87a.4.4,0,0,1,.41.4v1.24a.41.41,0,0,1-.41.41H978.47a.41.41,0,0,1-.41-.41Z" transform="translate(-976.688 -812.448)" fill="url(#linear-gradient)"/>
</svg>
