<svg id="icon-close-btn" xmlns="http://www.w3.org/2000/svg" width="22.377" height="22.372" viewBox="0 0 22.377 22.372">
  <path id="Path_2998" data-name="Path 2998" d="M1773.17,716a1.5,1.5,0,0,1,0,2.13,1.48,1.48,0,0,1-1.06.43,1.5,1.5,0,0,1-1.06-.43l-8.62-8.63-8.63,8.63a1.5,1.5,0,0,1-2.12-2.13l8.62-8.62-8.62-8.63a1.49,1.49,0,0,1,0-2.12,1.51,1.51,0,0,1,2.12,0l8.63,8.63,8.62-8.63a1.51,1.51,0,0,1,2.12,0,1.49,1.49,0,0,1,0,2.12l-8.62,8.63Z" transform="translate(-1751.237 -696.195)" fill="#010101"/>
</svg>
