<svg id="icon-user-dashboard-cash-deposit" xmlns="http://www.w3.org/2000/svg" xmlns:xlink="http://www.w3.org/1999/xlink" width="20.63" height="30" viewBox="0 0 20.63 30">
  <defs>
    <linearGradient id="linear-gradient" y1="0.5" x2="1" y2="0.5" gradientUnits="objectBoundingBox">
      <stop offset="0" stop-color="#fbb042"/>
      <stop offset="0.04" stop-color="#fbb042"/>
      <stop offset="0.39" stop-color="#fdc010"/>
      <stop offset="1" stop-color="#ffde11"/>
    </linearGradient>
  </defs>
  <path id="Path_1967" data-name="Path 1967" d="M1437.23,812.45c-5,0-10.32,1.17-10.32,3.75v22.5c0,2.58,5.35,3.75,10.32,3.75s10.31-1.17,10.31-3.75V816.2C1447.54,813.62,1442.2,812.45,1437.23,812.45Zm8.43,26.23c-.14.53-3,1.89-8.43,1.89s-8.3-1.36-8.44-1.87v-1.47c2,1,5.29,1.47,8.44,1.47s6.44-.47,8.43-1.48Zm0-3.75c-.14.53-3,1.89-8.43,1.89s-8.3-1.36-8.44-1.87v-1.47c2,1,5.29,1.47,8.44,1.47s6.44-.47,8.43-1.48Zm0-3.75c-.14.53-3,1.89-8.43,1.89s-8.3-1.36-8.44-1.87v-1.47c2,1,5.29,1.47,8.44,1.47s6.44-.47,8.43-1.48Zm0-3.75c-.14.53-3,1.89-8.43,1.89s-8.3-1.36-8.44-1.87V826c2,1,5.29,1.47,8.44,1.47s6.44-.47,8.43-1.48Zm0-3.75c-.14.53-3,1.89-8.43,1.89s-8.3-1.36-8.44-1.87v-1.47c2,1,5.29,1.47,8.44,1.47s6.44-.47,8.43-1.48Zm0-3.75c-.14.53-3,1.89-8.43,1.89s-8.3-1.36-8.44-1.87v-1.47c2,1,5.29,1.47,8.44,1.47s6.44-.47,8.43-1.48Zm-8.43-1.86c-5.48,0-8.29-1.36-8.44-1.85h0c.15-.52,3-1.89,8.44-1.89s8.25,1.35,8.43,1.88C1445.48,816.73,1442.66,818.07,1437.23,818.07Z" transform="translate(-1426.91 -812.45)" fill="url(#linear-gradient)"/>
</svg>
