<svg id="icon-card-payment-decline" xmlns="http://www.w3.org/2000/svg" width="175.7" height="175.7" viewBox="0 0 175.7 175.7">
  <path id="Multiply" d="M968.74,640.71a87.85,87.85,0,1,0,87.85,87.85,87.85,87.85,0,0,0-87.85-87.85Zm0,164.72a76.87,76.87,0,1,1,76.87-76.87,76.87,76.87,0,0,1-76.87,76.87ZM1000.08,705,976.5,728.56l23.58,23.57a5.491,5.491,0,0,1-7.77,7.76l-23.57-23.57-23.57,23.57a5.491,5.491,0,1,1-7.77-7.76L961,728.56,937.4,705a5.494,5.494,0,0,1,7.77-7.77l23.57,23.57,23.57-23.57a5.494,5.494,0,0,1,7.77,7.77Z" transform="translate(-880.89 -640.71)" fill="#eb2c25"/>
</svg>
