<svg id="icon-user-dashboard-thank-you" xmlns="http://www.w3.org/2000/svg" xmlns:xlink="http://www.w3.org/1999/xlink" width="215.91" height="175.01" viewBox="0 0 215.91 175.01">
  <defs>
    <linearGradient id="linear-gradient" y1="0.5" x2="1" y2="0.5" gradientUnits="objectBoundingBox">
      <stop offset="0" stop-color="#fbb042"/>
      <stop offset="0.04" stop-color="#fbb042"/>
      <stop offset="0.39" stop-color="#fdc010"/>
      <stop offset="1" stop-color="#ffde11"/>
    </linearGradient>
  </defs>
  <path id="_25_chat" data-name="25 chat" d="M1078.43,1008.91a3.17,3.17,0,0,1-3.17,3.16h-6.67v24.08a3.17,3.17,0,0,1-6.33,0v-24.08h-6.66a3.17,3.17,0,1,1,0-6.33h19.66A3.17,3.17,0,0,1,1078.43,1008.91Zm42.13,30.16a3.17,3.17,0,0,1-1.71-4.14l11.37-27.24a3.15,3.15,0,0,1,4.13-1.7,3.089,3.089,0,0,1,1.63,1.55.519.519,0,0,1,.07.15h0l8.26,19.82a3.11,3.11,0,0,1,.6,1.42l2.5,6a3.17,3.17,0,0,1-1.71,4.14,3.218,3.218,0,0,1-1.21.24,3.16,3.16,0,0,1-2.92-1.94l-2-4.8h-12.89l-2,4.8a3.16,3.16,0,0,1-2.92,1.94,3.218,3.218,0,0,1-1.21-.24Zm8.77-12.82h7.61l-3.8-9.13Zm-40.4,13.06a3.15,3.15,0,0,0,3.16-3.16v-10.47h12.42v10.47a3.16,3.16,0,1,0,6.32,0v-27.24a3.16,3.16,0,0,0-6.32,0v10.45h-12.42v-10.45a3.16,3.16,0,0,0-6.32,0v27.24A3.16,3.16,0,0,0,1088.93,1039.31Zm70,0a3.15,3.15,0,0,0,3.16-3.16v-17.72L1176.7,1038a3.161,3.161,0,0,0,5.69-1.73.609.609,0,0,0,0-.14v-27.24a3.17,3.17,0,1,0-6.33,0v17.72L1161.42,1007a3.16,3.16,0,0,0-5.69,1.83v27.31a3.15,3.15,0,0,0,3.16,3.16Zm36.29,0a3.16,3.16,0,0,0,3.17-3.16v-7.69l5.53-5.24,7.26,14.36a3.15,3.15,0,0,0,2.82,1.73,3.2,3.2,0,0,0,1.43-.34,3.16,3.16,0,0,0,1.39-4.25l-8.11-16,7.9-7.48a3.162,3.162,0,0,0-4.35-4.59l-9.54,9a.67.67,0,0,0-.15.14l-4.18,4v-10.84a3.17,3.17,0,1,0-6.33,0v27.24a3.16,3.16,0,0,0,3.16,3.16Zm46-39.84a9.92,9.92,0,0,1,9.91,9.92v115.13a9.91,9.91,0,0,1-9.91,9.91H1112.67L1081.06,1156a7.46,7.46,0,0,1-4.15,1.64,4.13,4.13,0,0,1-1.94-.47c-1.74-.88-2.61-2.73-2.61-5.49v-14.42l-6.89,4.7a8,8,0,0,1-4.41,1.75,4.331,4.331,0,0,1-2-.47c-1.79-.92-2.7-2.86-2.7-5.79V1118h-10.49a10.65,10.65,0,0,1-10.65-10.64V993.28a10.66,10.66,0,0,1,10.65-10.65H1224.1a10.66,10.66,0,0,1,10.64,10.65v6.19Zm-143.4,112.76a3.17,3.17,0,0,1,1.78-.55h124.52a4.33,4.33,0,0,0,4.32-4.32V993.28a4.33,4.33,0,0,0-4.32-4.32H1045.88a4.33,4.33,0,0,0-4.33,4.32v114.08a4.33,4.33,0,0,0,4.33,4.32h13.65a3.15,3.15,0,0,1,3.16,3.16v21.35Zm147,12.29V1009.39a3.59,3.59,0,0,0-3.59-3.59h-6.46v101.56a10.65,10.65,0,0,1-10.64,10.64H1100.57l-21.89,14.94v17l31.23-21.3a3.138,3.138,0,0,1,1.78-.55h129.52a3.64,3.64,0,0,0,3.59-3.59ZM1105.26,1061a3.17,3.17,0,0,0-4.41.75l-7.09,10-7.09-10a3.163,3.163,0,1,0-5.16,3.66l9.09,12.83v12.58a3.16,3.16,0,1,0,6.32,0v-12.58l9.09-12.83a3.16,3.16,0,0,0-.75-4.41Zm20.44,33a14.13,14.13,0,0,1-14.12-14.11v-5.31a14.11,14.11,0,1,1,28.22,0v5.31a14.12,14.12,0,0,1-14.1,14.11Zm-7.79-14.11a7.78,7.78,0,0,0,15.56,0v-5.31a7.78,7.78,0,0,0-15.56,0Zm29.44,2.18c0,7.81,6.18,11.9,12.29,11.9s12.29-4.09,12.29-11.9v-18.5a3.17,3.17,0,0,0-6.33,0v18.5c0,4.12-3.21,5.58-6,5.58s-6-1.46-6-5.58v-18.5a3.16,3.16,0,1,0-6.32,0Zm39-1.26a3.16,3.16,0,0,0,3.16-3.16V1063.6a3.16,3.16,0,1,0-6.32,0v14.08a3.16,3.16,0,0,0,3.18,3.16Zm0,13.17a3.16,3.16,0,0,0,3.16-3.17v-.18a3.16,3.16,0,1,0-6.32,0v.18a3.16,3.16,0,0,0,3.18,3.19Z" transform="translate(-1035.22 -982.63)" fill="url(#linear-gradient)"/>
</svg>
