<svg xmlns="http://www.w3.org/2000/svg" viewBox="0 0 22.92 22.5" class="icon-search-filter_options">
    <title>Card View</title>
    <g id="Layer_2" data-name="Layer 2">
        <g id="Layer_1-2" data-name="Layer 1">
            <g id="List_View" data-name="List View">
                <g class="cls-1">
                    <path class="cls-2" d="M13.16,0H.42A.42.42,0,0,0,0,.42V13.16a.43.43,0,0,0,.42.43H13.16a.42.42,0,0,0,.42-.43V.42A.42.42,0,0,0,13.16,0ZM.85,12.74V.85H12.74V12.74Z"/>
                    <path class="cls-2" d="M22.5,0H17.41A.42.42,0,0,0,17,.42v5.1a.42.42,0,0,0,.43.42H22.5a.42.42,0,0,0,.42-.42V.42A.42.42,0,0,0,22.5,0Zm-.42,5.09H17.83V.85h4.25Z"/>
                    <path class="cls-2" d="M22.5,16.56H17.41A.42.42,0,0,0,17,17v5.1a.42.42,0,0,0,.43.42H22.5a.42.42,0,0,0,.42-.42V17A.42.42,0,0,0,22.5,16.56Zm-.42,5.09H17.83V17.41h4.25Z"/>
                    <path class="cls-2" d="M5.52,16.56H.42A.42.42,0,0,0,0,17v5.1a.42.42,0,0,0,.42.42h5.1a.42.42,0,0,0,.42-.42V17A.42.42,0,0,0,5.52,16.56Zm-.43,5.09H.85V17.41H5.09Z"/>
                </g>
            </g>
        </g>
    </g>
</svg>