<svg id="icon-user-dashboard-card-payment" xmlns="http://www.w3.org/2000/svg" xmlns:xlink="http://www.w3.org/1999/xlink" width="45" height="30" viewBox="0 0 45 30">
  <defs>
    <linearGradient id="linear-gradient" y1="0.5" x2="1" y2="0.5" gradientUnits="objectBoundingBox">
      <stop offset="0" stop-color="#fbb042"/>
      <stop offset="0.04" stop-color="#fbb042"/>
      <stop offset="0.39" stop-color="#fdc010"/>
      <stop offset="1" stop-color="#ffde11"/>
    </linearGradient>
  </defs>
  <path id="Path_1966" data-name="Path 1966" d="M652.93,812.45H617.31a4.69,4.69,0,0,0-4.69,4.69v20.62a4.69,4.69,0,0,0,4.69,4.69h35.62a4.69,4.69,0,0,0,4.69-4.69V817.14a4.69,4.69,0,0,0-4.69-4.69Zm2.81,25.31a2.81,2.81,0,0,1-2.81,2.81H617.31a2.82,2.82,0,0,1-2.82-2.81V817.14a2.83,2.83,0,0,1,2.82-2.82h35.62a2.82,2.82,0,0,1,2.81,2.82Zm.94-19.69H613.56a.94.94,0,0,0-.94.94v5.63a.94.94,0,0,0,.94.93h43.12a.94.94,0,0,0,.94-.93V819a.94.94,0,0,0-.94-.93Zm-.94,5.63H614.49V820h41.25v3.75Zm-25.31,7.5H619.18a.94.94,0,1,0,0,1.87h11.25a.94.94,0,1,0,0-1.87Zm0,3.75H619.18a.94.94,0,1,0,0,1.87h11.25a.94.94,0,1,0,0-1.87Zm18.75-5.63h-1.87a2.83,2.83,0,0,0-2.82,2.82V834a2.82,2.82,0,0,0,2.82,2.81h1.87A2.81,2.81,0,0,0,652,834v-1.87A2.82,2.82,0,0,0,649.18,829.32Zm.94,4.69a.94.94,0,0,1-.94.94h-1.87a.94.94,0,0,1-.94-.94v-1.87a.94.94,0,0,1,.94-.94h1.87a.94.94,0,0,1,.94.94Z" transform="translate(-612.62 -812.45)" fill="url(#linear-gradient)"/>
</svg>
