<svg xmlns="http://www.w3.org/2000/svg" width="14.76" height="14.76" viewBox="0 0 14.76 14.76">
  <path id="icon-user-dashboard-wallet-info" d="M1709.92,514.53a7.38,7.38,0,1,0,7.38,7.38,7.38,7.38,0,0,0-7.38-7.38Zm1.54,11.44-.91.34a2.39,2.39,0,0,1-.79.12,1.53,1.53,0,0,1-1.07-.34,1,1,0,0,1-.38-.85,2.872,2.872,0,0,1,0-.41,3.764,3.764,0,0,1,.1-.48l.47-1.68a2.115,2.115,0,0,1,.11-.45,2.009,2.009,0,0,0,0-.4.619.619,0,0,0-.13-.45.79.79,0,0,0-.51-.12,1.737,1.737,0,0,0-.38,0l-.33.11.13-.51c.31-.13.61-.24.89-.33a2.63,2.63,0,0,1,.81-.13,1.52,1.52,0,0,1,1,.33,1.08,1.08,0,0,1,.37.86,3.209,3.209,0,0,1,0,.38,2.574,2.574,0,0,1-.1.51l-.47,1.67a4.583,4.583,0,0,0-.1.46,2.773,2.773,0,0,0,0,.39.56.56,0,0,0,.15.46.84.84,0,0,0,.52.12,1.549,1.549,0,0,0,.39-.06l.31-.11Zm-.09-6.8a1.09,1.09,0,0,1-.79.31,1.12,1.12,0,0,1-.8-.31.986.986,0,0,1,0-1.49,1.12,1.12,0,0,1,.8-.31,1.09,1.09,0,0,1,.79.31,1.006,1.006,0,0,1,0,1.49Z" transform="translate(-1702.54 -514.53)" fill="#abafb2"/>
</svg>
